Coordinates
version=1
nRows=11
nColumns=63
inDegrees=yes

Units are S.I. units (second, meters, Newtons, ...)
If the header above contains a line with 'inDegrees', this indicates whether rotational values are in degrees (yes) or radians (no).

endheader
time	pelvis_tilt	pelvis_list	pelvis_rotation	pelvis_tx	pelvis_ty	pelvis_tz	hip_flexion_r	hip_adduction_r	hip_rotation_r	knee_angle_r	knee_angle_r_beta	ankle_angle_r	subtalar_angle_r	mtp_angle_r	hip_flexion_l	hip_adduction_l	hip_rotation_l	knee_angle_l	knee_angle_l_beta	ankle_angle_l	subtalar_angle_l	mtp_angle_l	L5_S1_Flex_Ext	L5_S1_Lat_Bending	L5_S1_axial_rotation	L4_L5_Flex_Ext	L4_L5_Lat_Bending	L4_L5_axial_rotation	L3_L4_Flex_Ext	L3_L4_Lat_Bending	L3_L4_axial_rotation	L2_L3_Flex_Ext	L2_L3_Lat_Bending	L2_L3_axial_rotation	L1_L2_Flex_Ext	L1_L2_Lat_Bending	L1_L2_axial_rotation	L1_T12_Flex_Ext	L1_T12_Lat_Bending	L1_T12_axial_rotation	Abs_r3	Abs_r2	Abs_r1	Abs_t1	Abs_t2	neck_flexion	neck_bending	neck_rotation	arm_flex_r	arm_add_r	arm_rot_r	elbow_flex_r	pro_sup_r	wrist_flex_r	wrist_dev_r	arm_flex_l	arm_add_l	arm_rot_l	elbow_flex_l	pro_sup_l	wrist_flex_l	wrist_dev_l
      0.03333333	     -0.33561498	     -0.96428826	     -0.70761615	     -1.62099739	      0.86894907	      0.28104604	     -1.19941340	      1.34853089	     -4.21768594	      3.93613085	      0.06869844	      5.83262670	    -16.77689531	      0.00000000	     -1.00254274	     -4.43883156	    -28.59904480	      6.10064721	      0.10647638	      9.35754667	     16.55382819	      0.00000000	      0.00062331	     -0.05527174	      0.07083561	      0.00115754	     -0.07351142	      0.07526283	      0.00102403	     -0.13438772	      0.07526283	      0.00071238	     -0.13438772	      0.06198116	      0.00057880	     -0.11271014	      0.05755393	      0.00035616	     -0.08561593	      0.05312670	      0.00445221	     -0.62524503	      0.39396639	      0.00000000	      0.00000000	     -0.00000000	      0.00000000	     -0.00000000	     -5.81557172	      5.96815222	    -24.82937736	     32.22927779	     35.62965409	      0.00000000	      6.32956199	     -4.16624529	      6.43866448	    -33.30751592	     40.93523240	     31.81943509	      0.00000000	      6.32956199
      0.06666667	     -0.46831944	     -3.84723745	     -0.94191889	     -1.61964758	      0.87064844	      0.28101739	     -1.01873907	      4.28318347	     -3.48045564	      4.44555486	      0.07758957	      5.08500987	    -16.16028245	      0.00000000	     -2.00398696	     -6.96927216	    -28.60739311	      4.08027623	      0.07121425	      8.26842564	     14.73688655	      0.00000000	      0.00435736	      0.12836204	      0.09159250	      0.00809204	      0.17072151	      0.09731703	      0.00715870	      0.31209945	      0.09731703	      0.00498002	      0.31209945	      0.08014344	      0.00404624	      0.26175586	      0.07441891	      0.00248979	      0.19883279	      0.06869438	      0.03112415	      1.45205702	      0.50941002	      0.00000000	      0.00000000	     -0.00000000	      0.00000000	     -0.00000000	     -5.39306690	      4.20692409	    -25.00859562	     32.20417977	     35.57614260	      0.00000000	      6.31360762	     -4.76443448	      7.54434862	    -33.98938337	     42.77057261	     31.74035434	      0.00000000	      6.31360762
      0.10000000	     -0.60580573	     -6.47987230	     -1.32967597	     -1.61893483	      0.87184051	      0.28061221	     -0.89724335	      6.94516659	     -2.40690825	      4.71579610	      0.08230617	      3.94643469	    -16.19274053	      0.00000000	     -2.19207851	     -8.95456546	    -14.65831881	      3.48644397	      0.06084993	      4.71357575	     -8.34087915	      0.00000000	      0.00057446	      0.30374283	      0.15031606	      0.00106682	      0.40397796	      0.15971082	      0.00094378	      0.73852032	      0.15971082	      0.00065655	      0.73852032	      0.13152655	      0.00053344	      0.61939238	      0.12213180	      0.00032824	      0.47049764	      0.11273705	      0.00410329	      3.43599964	      0.83601284	      0.00000000	      0.00000000	     -0.00000000	      0.00000000	     -0.00000000	     -5.21123038	      1.96152909	    -21.66994108	     32.18496439	     34.27668928	      0.00000000	      5.92297834	     -4.77860120	      9.70544191	    -38.76777797	     44.79539782	     30.50039915	      0.00000000	      5.92297834
      0.13333333	     -0.72095667	     -8.48023378	     -1.41565601	     -1.61835811	      0.87281225	      0.28013937	     -0.76820782	      8.95412241	     -2.16889072	      4.97480872	      0.08682679	      3.41381157	    -15.67812587	      0.00000000	     -2.40124395	    -10.89334153	    -15.09439478	      3.09653754	      0.05404478	      4.28109727	     -9.61813650	      0.00000000	      0.00031290	      0.44322308	      0.16643819	      0.00058108	      0.58948670	      0.17684058	      0.00051406	      1.07765261	      0.17684058	      0.00035761	      1.07765261	      0.14563342	      0.00029055	      0.90382051	      0.13523103	      0.00017879	      0.68655256	      0.12482865	      0.00223498	      5.01382817	      0.92567930	      0.00000000	      0.00000000	     -0.00000000	      0.00000000	     -0.00000000	     -4.98219108	      0.86582368	    -21.84888092	     32.01676847	     34.15911486	      0.00000000	      5.90969448	     -5.10005082	     10.57584672	    -39.20593195	     45.91268694	     30.43614484	      0.00000000	      5.90969448
      0.16666667	     -0.78117066	     -9.67549280	     -1.24230938	     -1.61818213	      0.87331524	      0.27958481	     -0.71306529	     10.13293719	     -2.34905940	      5.02913548	      0.08777497	      3.16160964	    -14.98946366	      0.00000000	     -2.10348047	    -11.93262101	    -11.68341229	      3.48399434	      0.06080717	      2.65245053	    -16.19120952	      0.00000000	     -0.00106962	      0.52153904	      0.13725517	     -0.00198639	      0.69364692	      0.14583362	     -0.00175728	      1.26807002	      0.14583362	     -0.00122247	      1.26807002	      0.12009828	     -0.00099325	      1.06352241	      0.11151983	     -0.00061118	      0.80786397	      0.10294138	     -0.00764018	      5.89975393	      0.76337209	      0.00000000	      0.00000000	     -0.00000000	      0.00000000	     -0.00000000	     -4.92619621	     -0.11461280	    -19.46314952	     31.67396872	     33.42139919	      0.00000000	      5.77248106	     -5.03292785	     11.50409300	    -41.18345522	     46.63522915	     29.82711859	      0.00000000	      5.77248106
      0.20000000	     -0.77860294	    -10.21224815	     -1.22765008	     -1.61781609	      0.87367834	      0.27958963	     -0.73855193	     10.66911919	     -2.30363614	      5.05317219	      0.08819449	      3.05116991	    -14.75187213	      0.00000000	     -2.14442679	    -12.35066575	    -11.83966131	      3.43526193	      0.05995663	      2.70205487	    -16.57723882	      0.00000000	     -0.00093334	      0.55512856	      0.15292232	     -0.00173331	      0.73832099	      0.16247997	     -0.00153339	      1.34973959	      0.16247997	     -0.00106672	      1.34973959	      0.13380703	     -0.00086670	      1.13201817	      0.12424939	     -0.00053331	      0.85989415	      0.11469174	     -0.00666679	      6.27972535	      0.85050808	      0.00000000	      0.00000000	     -0.00000000	      0.00000000	     -0.00000000	     -5.03043955	     -0.16314985	    -19.00766858	     31.29691211	     33.37016389	      0.00000000	      5.75803944	     -5.14187545	     11.68597061	    -41.16955472	     46.89025872	     29.78542946	      0.00000000	      5.75803944
      0.23333333	     -0.73404964	    -10.24952630	     -1.16955275	     -1.61748268	      0.87396487	      0.27968707	     -0.81945545	     10.67477595	     -2.73953347	      5.01819624	      0.08758405	      3.22860884	    -13.94300067	      0.00000000	     -2.10815424	    -12.29118245	    -11.27461800	      3.53190909	      0.06164344	      2.71344955	    -16.98235586	      0.00000000	     -0.00125294	      0.54602684	      0.15547967	     -0.00232684	      0.72621570	      0.16519715	     -0.00205846	      1.32760966	      0.16519715	     -0.00143199	      1.32760966	      0.13604471	     -0.00116348	      1.11345793	      0.12632723	     -0.00071593	      0.84579558	      0.11660975	     -0.00894964	      6.17676483	      0.86473127	      0.00000000	      0.00000000	     -0.00000000	      0.00000000	     -0.00000000	     -5.18445022	     -0.68620938	    -14.32491253	     30.37198380	     34.39692276	      0.00000000	      5.52359362	     -5.17920088	     11.72697432	    -41.44785048	     46.96878704	     30.99981003	      0.00000000	      5.52359362
      0.26666667	     -0.67897701	    -10.08542717	     -1.13039813	     -1.61717287	      0.87415712	      0.27985708	     -0.93646229	     10.48369062	     -3.02635136	      4.91561106	      0.08579360	      3.14060921	    -13.63254191	      0.00000000	     -1.95625109	    -12.09023273	     -9.96442870	      3.83683581	      0.06696542	      2.77960741	    -17.26031832	      0.00000000	     -0.00098531	      0.52530128	      0.16270305	     -0.00182982	      0.69865070	      0.17287199	     -0.00161876	      1.27721752	      0.17287199	     -0.00112611	      1.27721752	      0.14236517	     -0.00091496	      1.07119436	      0.13219623	     -0.00056301	      0.81369168	      0.12202729	     -0.00703796	      5.94231310	      0.90490557	      0.00000000	      0.00000000	     -0.00000000	      0.00000000	     -0.00000000	     -5.32256931	     -0.75146923	    -11.40104050	     29.69875576	     34.65105812	      0.00000000	      5.38283417	     -5.19199754	     11.66363411	    -41.51786313	     46.96891915	     31.47258864	      0.00000000	      5.38283417
      0.30000000	     -0.61062805	     -9.76200987	     -1.37962161	     -1.61688897	      0.87428854	      0.28029725	     -1.09633915	     10.11200898	     -3.04386709	      4.79307754	      0.08365498	      2.95252653	    -13.43916046	      0.00000000	     -1.89480745	    -11.72376442	     -8.60076898	      4.10861054	      0.07170878	      2.90813319	    -17.16615846	      0.00000000	     -0.00429078	      0.49239825	      0.22217623	     -0.00796842	      0.65488968	      0.23606224	     -0.00704933	      1.19721711	      0.23606224	     -0.00490394	      1.19721711	      0.19440420	     -0.00398442	      1.00409852	      0.18051818	     -0.00245175	      0.76272489	      0.16663217	     -0.03064865	      5.57010752	      1.23567751	      0.00000000	      0.00000000	     -0.00000000	      0.00000000	     -0.00000000	     -5.42781090	     -0.36348683	    -10.87966340	     29.33121637	     34.59613512	      0.00000000	      5.37368636	     -5.20877360	     11.56998782	    -41.55712447	     47.00039166	     31.38624700	      0.00000000	      5.37368636
      0.33333333	     -0.60113984	     -9.69548752	     -1.19877814	     -1.61673591	      0.87418807	      0.28015027	     -1.12524803	     10.00050104	     -3.95951679	      4.69283615	      0.08190544	      2.56097193	    -12.97395457	      0.00000000	     -1.55703574	    -11.64555608	     -6.08196016	      4.51462678	      0.07879510	      2.67046442	    -17.74662310	      0.00000000	     -0.00109571	      0.48972390	      0.17687058	     -0.00203485	      0.65133278	      0.18792500	     -0.00180015	      1.19071468	      0.18792500	     -0.00125229	      1.19071468	      0.15476176	     -0.00101748	      0.99864497	      0.14370735	     -0.00062609	      0.75858231	      0.13265294	     -0.00782656	      5.53985465	      0.98370113	      0.00000000	      0.00000000	     -0.00000000	      0.00000000	     -0.00000000	     -5.44150206	     -0.51742578	     -8.89856241	     28.96330508	     34.44460325	      0.00000000	      5.34110941	     -5.20849981	     11.59773296	    -41.69278348	     47.13931223	     31.08858576	      0.00000000	      5.34110941
      0.36666667	     -0.60150018	     -9.61245372	     -1.57057395	     -1.61657671	      0.87396506	      0.28045958	     -1.13492336	      9.86790676	     -3.95121398	      4.71618539	      0.08231296	      2.29992121	    -12.85884485	      0.00000000	     -1.57156037	    -11.50324888	     -5.37456153	      4.54648391	      0.07935111	      2.55574119	    -17.39966939	      0.00000000	     -0.00087127	      0.48959598	      0.22140244	     -0.00161804	      0.65116266	      0.23524010	     -0.00143141	      1.19040367	      0.23524010	     -0.00099578	      1.19040367	      0.19372714	     -0.00080906	      0.99838413	      0.17988948	     -0.00049784	      0.75838418	      0.16605183	     -0.00622341	      5.53840768	      1.23137397	      0.00000000	      0.00000000	     -0.00000000	      0.00000000	     -0.00000000	     -5.37762097	     -0.51820212	     -8.87131929	     28.94577201	     34.42960781	      0.00000000	      5.33991171	     -5.24803058	     11.62006949	    -41.71560338	     47.19855066	     31.07730662	      0.00000000	      5.33991171
